<svg width="417" height="461" viewBox="0 0 417 461" fill="none" xmlns="http://www.w3.org/2000/svg">
<path d="M315.364 460.71L315.224 460.923L167.058 352.44L207.69 293.903L315.364 460.71Z" fill="#66BED8"/>
<path d="M0.0575672 63.8636L0.0478878 63.7644L89.5238 72.5762L91.999 102.53L0.0575672 63.8636Z" fill="#F5F9FD"/>
<path d="M103.86 46.916L103.815 46.8229L162.808 23.195L180.092 48.6433L103.86 46.916Z" fill="#F5F9FD"/>
<path d="M199.959 291.026L134.816 246.94L87.2278 306.623L152.371 350.709L199.959 291.026Z" fill="#F5F9FD"/>
<path d="M173.756 129.568L122.697 130.057L84.0959 205.067L93.6087 303.87L190.449 302.946L173.756 129.568Z" fill="#F5F9FD"/>
<path d="M71.2105 53.4276L70.6538 53.0509L70.7305 53.1029L71.2105 53.4276Z" fill="#66BED8"/>
<path d="M198.833 128.881L212.943 254.952L344.298 295.712L379.369 180.308L198.833 128.881Z" fill="#66BED8"/>
<path d="M181.283 122.619L97.9156 120.644L99.5623 77.3115L172.627 74.6051L181.283 122.619Z" fill="#66BED8"/>
<path d="M130.117 64.154C128.126 66.6511 116.546 69.6331 114.045 67.9411C111.545 66.249 111.115 62.828 113.106 60.3309C115.097 57.8339 118.321 57.94 121.269 58.881C125.06 60.0857 132.108 61.657 130.117 64.154Z" fill="#66BED8"/>
</svg>
