<svg width="485" height="1135" viewBox="0 0 485 1135" fill="none" xmlns="http://www.w3.org/2000/svg">
<path d="M153.617 392.853L140.281 420.492L113.569 599.306L167.047 641.255L153.617 392.853Z" fill="#66BED8"/>
<path d="M454.562 1069.92L420.131 1062.18L380.056 920.566L422.926 915.39L454.562 1069.92Z" fill="#66BED8"/>
<path d="M460.091 1115.92L415.653 1105.99L420.717 1067.34L449.962 1075.65L460.091 1115.92Z" fill="#212A2F"/>
<path d="M420.252 909.045L377.62 914.192L366.268 888.893L407.661 883.896L420.252 909.045Z" fill="#66BED8"/>
<path d="M409.686 873.648L359.992 879.648L335.234 769.084L420.353 702.345L409.686 873.648Z" fill="#212A2F"/>
<path d="M484.388 764.621L453.88 763.083L426.909 701.554L466.817 728.297L484.388 764.621Z" fill="#66BED8"/>
<path d="M414.554 695.633L238.967 832.59L222.982 817.664L302.966 586.508L414.554 695.633Z" fill="#212A2F"/>
<path d="M348.946 883.145L297.279 902.222L247.985 845.78L326.122 778.728L348.946 883.145Z" fill="#212A2F"/>
<path d="M353.602 921.871L311.588 935.495L302.222 909.539L350.467 895.797L353.602 921.871Z" fill="#66BED8"/>
<path d="M354.801 1065.29L327.527 1064.71L314.342 940.163L357.588 941.22L354.801 1065.29Z" fill="#66BED8"/>
<path d="M356.088 1121.81L310.11 1127.36L325.825 1073.79L355.945 1079.74L356.088 1121.81Z" fill="#66BED8"/>
<path d="M172.64 952.272L143.124 955.836L190.919 679.229L290.182 588.049L172.64 952.272Z" fill="#212A2F"/>
<path d="M166.248 996.379L134.549 995.201L145.063 968.934L175.852 965.217L166.248 996.379Z" fill="#66BED8"/>
<path d="M153.339 1086.28L134.052 1087.89L135.922 1003.38L165.498 1003.58L153.339 1086.28Z" fill="#66BED8"/>
<path d="M151.367 1126.53L117.565 1130.61L131.138 1097.3L156.914 1098.21L151.367 1126.53Z" fill="#212A2F"/>
<path d="M60.9404 930.755L36.3208 925.206L106.685 610.203L169.856 680.131L60.9404 930.755Z" fill="#212A2F"/>
<path d="M57.7491 959.477L26.9673 958.082L32.4115 934.2L61.288 939.194L57.7491 959.477Z" fill="#66BED8"/>
<path d="M54.6424 1074.86L35.3484 1069.3L27.6376 964.777L54.705 967.445L54.6424 1074.86Z" fill="#66BED8"/>
<path d="M49.6563 1130.48L14.1202 1127.92L29.3172 1077.93L51.9806 1083.13L49.6563 1130.48Z" fill="#66BED8"/>
<path d="M288.141 571.067L178.798 671.503L151.259 158.424L209.593 126.069L288.141 571.067Z" fill="#212A2F"/>
<path d="M207.084 118.176L131.776 155.467L103.631 129.244L198.812 89.0342L207.084 118.176Z" fill="#66BED8"/>
<path d="M186.352 49.7346C178.301 39.9572 169.418 29.6411 158.148 27.2248C153.404 26.1998 148.571 26.6961 143.826 27.3562C119.164 30.7405 94.6162 38.6432 74.4298 54.8805C53.5651 71.6645 12.7453 113.548 35.8361 128.221C47.1848 135.421 48.3727 120.548 48.7551 122.041C51.1409 131.573 63.4989 129.355 70.3761 126.927C93.8138 118.606 98.2106 114.298 121.065 105.438C130.803 101.676 195.278 83.2877 196.133 71.2729C196.725 63.0667 191.347 55.8427 186.333 49.7659L186.352 49.7346ZM135.469 68.1092C129.136 68.8738 123.433 64.943 122.755 59.3015C122.077 53.66 126.663 48.4869 133.018 47.7196C139.374 46.9523 148.137 42.9599 148.812 48.5728C149.486 54.1856 141.803 67.3445 135.469 68.1092Z" fill="#66BED8"/>
<path d="M190.581 38.3533L167.477 23.9007L186.945 2.12212L205.542 8.48426L190.581 38.3533Z" fill="#66BED8"/>
</svg>
