<svg width="1916" height="124" viewBox="0 0 1916 124" fill="none" xmlns="http://www.w3.org/2000/svg">
<path d="M0 42.5L15.616 52.5153L120.959 81.5L150 52.3793L0 42.5Z" fill="#66BED8"/>
<path d="M248.765 45L241.628 65.1419L153.765 79V52.8514L248.765 45Z" fill="#66BED8"/>
<path d="M284.529 49L275.352 75L252.529 69.1612L259.637 52.1797L284.529 49Z" fill="#F5F9FD"/>
<path d="M304.294 46.5V72.5034L288.294 77.5V52.2521L304.294 46.5Z" fill="#66BED8"/>
<path d="M410.059 52.7951V83.1063L341.933 90L308.059 34L410.059 52.7951Z" fill="#F5F9FD"/>
<path d="M455.823 47L452.691 65.2314L413.823 77L432.758 54.9389L455.823 47Z" fill="#66BED8"/>
<path d="M533.14 4.10619e-06L602.588 115.468L592.476 124L459.588 59.2029L533.14 4.10619e-06Z" fill="#F5F9FD"/>
<path d="M670.65 33L678.353 65.4425L640.921 91L606.353 39.175L670.65 33Z" fill="#F5F9FD"/>
<path d="M697.988 47L703.118 73.2449L686.867 77L682.118 47H697.988Z" fill="#66BED8"/>
<path d="M784.882 59.1436L782.56 75.5L706.882 74.4244L710.649 48.5L784.882 59.1436Z" fill="#66BED8"/>
<path d="M819.647 49.4556V77.5L788.647 64.1802L794.393 46.5L819.647 49.4556Z" fill="#66BED8"/>
<path d="M1033.41 101.496V119.5L870.925 70.7709L823.412 4.5L1033.41 101.496Z" fill="#F5F9FD"/>
<path d="M1055.18 56.5271L1052.17 75.5L1037.18 67.2802V48.5L1055.18 56.5271Z" fill="#66BED8"/>
<path d="M1109.94 62.7876L1109.51 74.5L1058.94 67.2671L1061.21 49.5L1109.94 62.7876Z" fill="#66BED8"/>
<path d="M1132.71 54.3822V75L1113.71 64.4318L1116.12 49L1132.71 54.3822Z" fill="#F5F9FD"/>
<path d="M1333.05 86.7171L1329.45 101.567L1139.85 55.7103L1182.75 18.1822L1333.05 86.7171Z" fill="#F5F9FD"/>
<path d="M1355.3 54.5938L1352.23 73L1338.3 68.0006L1343.38 51L1355.3 54.5938Z" fill="#66BED8"/>
<path d="M1427.06 60.3015L1422.33 71.5L1359.06 68.5809L1362.62 52.5L1427.06 60.3015Z" fill="#66BED8"/>
<path d="M1703.49 25.5L1755.83 98.5L1446.01 77.9726L1430.83 40.5615L1703.49 25.5Z" fill="#F5F9FD"/>
<path d="M1792.59 53.8192L1788.48 75L1759.59 62.2495L1764.36 49L1792.59 53.8192Z" fill="#66BED8"/>
<path d="M1814.44 30.5L1831.35 78.4734L1813.58 93.5L1796.35 33.3673L1814.44 30.5Z" fill="#66BED8"/>
<path d="M1851.64 14.5176C1845.19 18.6517 1838.36 23.2466 1836.09 29.8476C1835.13 32.6262 1835.08 35.5675 1835.13 38.4681C1835.38 53.5406 1838.34 68.8706 1846.62 82.181C1855.18 95.9387 1877.35 123.508 1887.82 110.686C1892.97 104.383 1884.13 102.594 1885.05 102.472C1890.94 101.726 1890.51 94.136 1889.55 89.8257C1886.26 75.1327 1883.99 72.1779 1880.33 57.7967C1878.78 51.6701 1872.42 11.5763 1865.27 10.1937C1860.39 9.24493 1855.67 11.9558 1851.66 14.5312L1851.64 14.5176ZM1858.98 46.4381C1858.98 50.3011 1856.21 53.4457 1852.77 53.4457C1849.34 53.4457 1846.57 50.3147 1846.57 46.4381C1846.57 42.5616 1844.81 37.0042 1848.22 37.0042C1851.64 37.0042 1858.98 42.5751 1858.98 46.4381Z" fill="#66BED8"/>
<path d="M1915.88 61.154L1905.54 74L1893.88 60.7208L1899.05 50L1915.88 61.154Z" fill="#66BED8"/>
</svg>
