<svg width="1000" height="1004" viewBox="0 0 1000 1004" fill="none" xmlns="http://www.w3.org/2000/svg">
<path d="M976.511 658.742L849.969 492.377L763.723 686.152L677.477 879.926" fill="#66BED8"/>
<path d="M25.4105 637.161L150.031 459.235L239.031 669.581L328.031 879.926" fill="#66BED8"/>
<path d="M413.56 415.867L472.594 515.946L413.56 615.969H295.493L236.459 515.946L295.493 415.867H413.56Z" fill="#66BED8"/>
<path d="M700.05 415.867L759.084 515.946L700.05 615.969H581.983L522.949 515.946L581.983 415.867H700.05Z" fill="#66BED8"/>
<path d="M654.908 896.113L502.983 1003.99L351.058 896.113" fill="#66BED8"/>
<path d="M726.091 313.722L861.787 471.544L957.017 19.1401" fill="#66BED8"/>
<path d="M255.563 294.582L119.866 452.404L24.6369 0" fill="#66BED8"/>
</svg>
