<svg width="1008" height="1147" viewBox="0 0 1008 1147" fill="none" xmlns="http://www.w3.org/2000/svg">
<line x1="778.115" y1="1140.13" x2="998.26" y2="850.395" stroke="#66BED8" stroke-width="13.6992"/>
<path d="M884.157 1005.09L999.472 604.035" stroke="#66BED8" stroke-width="13.6992"/>
<path d="M473.396 1140.78L949.943 774.194" stroke="#66BED8" stroke-width="13.6992"/>
<line x1="695.139" y1="966.733" x2="997.523" y2="329.07" stroke="#66BED8" stroke-width="13.6992"/>
<path d="M878.454 585.671L715.243 87.18" stroke="#66BED8" stroke-width="13.6992"/>
<path d="M949.94 773.553L838.743 676.832" stroke="#66BED8" stroke-width="13.6992"/>
<path d="M999.284 607.818L843.482 677.689" stroke="#66BED8" stroke-width="13.6992"/>
<path d="M884.149 1001.93L700.698 963.97" stroke="#66BED8" stroke-width="13.6992"/>
<path d="M779.532 1139.76L702.594 963.973" stroke="#66BED8" stroke-width="13.6992"/>
<line x1="999.299" y1="1106.49" x2="879.104" y2="1005.27" stroke="#66BED8" stroke-width="13.6992"/>
<line x1="960.351" y1="407.066" x2="711.105" y2="86.9687" stroke="#66BED8" stroke-width="13.6992"/>
<path d="M1002.77 204.749L765.851 154.241" stroke="#66BED8" stroke-width="13.6992"/>
<line x1="1005.57" y1="8.3748" x2="718.368" y2="89.3479" stroke="#66BED8" stroke-width="13.6992"/>
<line x1="229.313" y1="6.07951" x2="9.16753" y2="295.811" stroke="#66BED8" stroke-width="13.6992"/>
<path d="M123.271 141.117L7.95548 542.172" stroke="#66BED8" stroke-width="13.6992"/>
<path d="M534.032 5.4292L57.4851 372.012" stroke="#66BED8" stroke-width="13.6992"/>
<line x1="312.289" y1="179.474" x2="9.90533" y2="817.137" stroke="#66BED8" stroke-width="13.6992"/>
<path d="M128.974 560.536L292.185 1059.03" stroke="#66BED8" stroke-width="13.6992"/>
<path d="M57.4876 372.654L168.685 469.375" stroke="#66BED8" stroke-width="13.6992"/>
<path d="M8.14375 538.389L163.946 468.518" stroke="#66BED8" stroke-width="13.6992"/>
<path d="M123.279 144.28L306.73 182.237" stroke="#66BED8" stroke-width="13.6992"/>
<path d="M227.896 6.44604L304.834 182.234" stroke="#66BED8" stroke-width="13.6992"/>
<line x1="8.12935" y1="39.7204" x2="128.324" y2="140.937" stroke="#66BED8" stroke-width="13.6992"/>
<line x1="47.0773" y1="739.141" x2="296.323" y2="1059.24" stroke="#66BED8" stroke-width="13.6992"/>
<path d="M4.65438 941.458L241.576 991.966" stroke="#66BED8" stroke-width="13.6992"/>
<line x1="1.85859" y1="1137.83" x2="289.06" y2="1056.86" stroke="#66BED8" stroke-width="13.6992"/>
</svg>
