<svg width="1074" height="1489" viewBox="0 0 1074 1489" fill="none" xmlns="http://www.w3.org/2000/svg">
<path d="M41.2181 809.215V623.06H155.879C216.581 623.06 256.51 637.089 273.507 653.007V771.444C256.24 788.441 217.121 809.215 155.879 809.215H41.2181ZM155.879 744.465C214.962 744.465 245.988 724.771 255.161 716.947C245.988 708.853 214.962 687.81 155.879 687.81H70.8949V744.465H155.879ZM481.344 741.767V809.215H284.397V741.767H368.032V690.507H284.397V623.06H481.344V690.507H397.709V741.767H481.344ZM492.009 809.215V623.06H559.456L644.44 757.955V623.06H711.887V809.215H644.44L559.456 674.32V809.215H492.009ZM848.257 811.913C785.127 811.913 740.612 788.981 722.805 771.444V651.928C740.072 635.47 785.666 620.362 848.257 620.362C913.007 620.362 955.634 635.201 973.71 651.928V771.444C955.364 789.52 913.547 811.913 848.257 811.913ZM848.257 747.163C912.198 747.163 945.651 724.501 955.364 715.868C945.651 707.234 912.198 685.112 848.257 685.112C784.048 685.112 750.864 707.234 741.151 715.868C750.864 724.501 784.048 747.163 848.257 747.163Z" fill="white" fill-opacity="0.1"/>
<path d="M88.5887 619.477V433.322H203.249C263.952 433.322 303.881 447.351 320.877 463.268V581.706C303.611 598.703 264.491 619.477 203.249 619.477H88.5887ZM203.249 554.727C262.333 554.727 293.359 535.032 302.532 527.209C293.359 519.115 262.333 498.071 203.249 498.071H118.266V554.727H203.249ZM528.714 552.029V619.477H331.768V552.029H415.403V500.769H331.768V433.322H528.714V500.769H445.08V552.029H528.714ZM539.379 619.477V433.322H606.827L691.81 568.217V433.322H759.258V619.477H691.81L606.827 484.582V619.477H539.379ZM895.628 622.174C832.497 622.174 787.982 599.242 770.176 581.706V462.189C787.443 445.732 833.037 430.624 895.628 430.624C960.378 430.624 1003 445.462 1021.08 462.189V581.706C1002.73 599.782 960.917 622.174 895.628 622.174ZM895.628 557.425C959.568 557.425 993.022 534.763 1002.73 526.129C993.022 517.496 959.568 495.373 895.628 495.373C831.418 495.373 798.234 517.496 788.522 526.129C798.234 534.763 831.418 557.425 895.628 557.425Z" fill="white" fill-opacity="0.1"/>
<path d="M32.6538 429.738V243.584H147.314C208.017 243.584 247.946 257.613 264.943 273.53V391.968C247.676 408.964 208.557 429.738 147.314 429.738H32.6538ZM147.314 364.989C206.398 364.989 237.424 345.294 246.597 337.47C237.424 329.377 206.398 308.333 147.314 308.333H62.3307V364.989H147.314ZM472.779 362.291V429.738H275.833V362.291H359.468V311.031H275.833V243.584H472.779V311.031H389.145V362.291H472.779ZM483.445 429.738V243.584H550.892L635.876 378.478V243.584H703.323V429.738H635.876L550.892 294.844V429.738H483.445ZM839.693 432.436C776.563 432.436 732.047 409.504 714.241 391.968V272.451C731.508 255.994 777.102 240.886 839.693 240.886C904.443 240.886 947.069 255.724 965.145 272.451V391.968C946.8 410.044 904.982 432.436 839.693 432.436ZM839.693 367.687C903.633 367.687 937.087 345.024 946.8 336.391C937.087 327.758 903.633 305.635 839.693 305.635C775.483 305.635 742.299 327.758 732.587 336.391C742.299 345.024 775.483 367.687 839.693 367.687Z" fill="white" fill-opacity="0.1"/>
<path d="M108.929 1010.48V824.322H223.589C284.292 824.322 324.22 838.351 341.217 854.268V972.706C323.951 989.703 284.831 1010.48 223.589 1010.48H108.929ZM223.589 945.727C282.673 945.727 313.699 926.032 322.872 918.209C313.699 910.115 282.673 889.071 223.589 889.071H138.605V945.727H223.589ZM549.054 943.029V1010.48H352.108V943.029H435.743V891.769H352.108V824.322H549.054V891.769H465.419V943.029H549.054ZM559.719 1010.48V824.322H627.167L712.15 959.217V824.322H779.598V1010.48H712.15L627.167 875.582V1010.48H559.719ZM915.968 1013.17C852.837 1013.17 808.322 990.242 790.516 972.706V853.189C807.782 836.732 853.377 821.624 915.968 821.624C980.717 821.624 1023.34 836.462 1041.42 853.189V972.706C1023.07 990.782 981.257 1013.17 915.968 1013.17ZM915.968 948.425C979.908 948.425 1013.36 925.763 1023.07 917.129C1013.36 908.496 979.908 886.373 915.968 886.373C851.758 886.373 818.574 908.496 808.862 917.129C818.574 925.763 851.758 948.425 915.968 948.425Z" fill="white" fill-opacity="0.1"/>
<path d="M53.7967 1213.48V1027.32H168.457C229.16 1027.32 269.089 1041.35 286.085 1057.27V1175.71C268.819 1192.7 229.699 1213.48 168.457 1213.48H53.7967ZM168.457 1148.73C227.541 1148.73 258.567 1129.03 267.74 1121.21C258.567 1113.11 227.541 1092.07 168.457 1092.07H83.4735V1148.73H168.457ZM493.922 1146.03V1213.48H296.976V1146.03H380.611V1094.77H296.976V1027.32H493.922V1094.77H410.288V1146.03H493.922ZM504.587 1213.48V1027.32H572.035L657.018 1162.22V1027.32H724.466V1213.48H657.018L572.035 1078.58V1213.48H504.587ZM860.836 1216.17C797.705 1216.17 753.19 1193.24 735.384 1175.71V1056.19C752.651 1039.73 798.245 1024.62 860.836 1024.62C925.586 1024.62 968.212 1039.46 986.288 1056.19V1175.71C967.943 1193.78 926.125 1216.17 860.836 1216.17ZM860.836 1151.42C924.776 1151.42 958.23 1128.76 967.943 1120.13C958.23 1111.5 924.776 1089.37 860.836 1089.37C796.626 1089.37 763.442 1111.5 753.73 1120.13C763.442 1128.76 796.626 1151.42 860.836 1151.42Z" fill="white" fill-opacity="0.1"/>
<path d="M67.1783 1418.48V1232.32H181.839C242.541 1232.32 282.47 1246.35 299.467 1262.27V1380.71C282.2 1397.7 243.081 1418.48 181.839 1418.48H67.1783ZM181.839 1353.73C240.923 1353.73 271.948 1334.03 281.121 1326.21C271.948 1318.11 240.923 1297.07 181.839 1297.07H96.8551V1353.73H181.839ZM507.304 1351.03V1418.48H310.358V1351.03H393.992V1299.77H310.358V1232.32H507.304V1299.77H423.669V1351.03H507.304ZM517.969 1418.48V1232.32H585.416L670.4 1367.22V1232.32H737.847V1418.48H670.4L585.416 1283.58V1418.48H517.969ZM874.218 1421.17C811.087 1421.17 766.572 1398.24 748.766 1380.71V1261.19C766.032 1244.73 811.627 1229.62 874.218 1229.62C938.967 1229.62 981.594 1244.46 999.67 1261.19V1380.71C981.324 1398.78 939.507 1421.17 874.218 1421.17ZM874.218 1356.42C938.158 1356.42 971.612 1333.76 981.324 1325.13C971.612 1316.5 938.158 1294.37 874.218 1294.37C810.008 1294.37 776.824 1316.5 767.111 1325.13C776.824 1333.76 810.008 1356.42 874.218 1356.42Z" fill="white" fill-opacity="0.1"/>
<path d="M67.1783 240V53.8453H181.839C242.541 53.8453 282.47 67.8743 299.467 83.7919V202.229C282.2 219.226 243.081 240 181.839 240H67.1783ZM181.839 175.251C240.923 175.251 271.948 155.556 281.121 147.732C271.948 139.638 240.923 118.595 181.839 118.595H96.8551V175.251H181.839ZM507.304 172.553V240H310.358V172.553H393.992V121.293H310.358V53.8453H507.304V121.293H423.669V172.553H507.304ZM517.969 240V53.8453H585.416L670.4 188.74V53.8453H737.847V240H670.4L585.416 105.105V240H517.969ZM874.218 242.698C811.087 242.698 766.572 219.766 748.766 202.229V82.7127C766.032 66.2556 811.627 51.1474 874.218 51.1474C938.967 51.1474 981.594 65.9858 999.67 82.7127V202.229C981.324 220.305 939.507 242.698 874.218 242.698ZM874.218 177.948C938.158 177.948 971.612 155.286 981.324 146.653C971.612 138.02 938.158 115.897 874.218 115.897C810.008 115.897 776.824 138.02 767.111 146.653C776.824 155.286 810.008 177.948 874.218 177.948Z" fill="white" fill-opacity="0.1"/>
</svg>
