<svg width="1000" height="811" viewBox="0 0 1000 811" fill="none" xmlns="http://www.w3.org/2000/svg">
<path d="M995.363 685.465L4.63738 655.577" stroke="#66BED8" stroke-width="9.7792"/>
<path d="M681.715 676.679L7.43154 362.201" stroke="#66BED8" stroke-width="9.7792"/>
<path d="M993.264 468.926L497.848 589.65" stroke="#66BED8" stroke-width="9.7792"/>
<path d="M800.472 515.726L111.754 339.002" stroke="#66BED8" stroke-width="9.7792"/>
<path d="M446.289 423.553L289.618 3.95501" stroke="#66BED8" stroke-width="9.7792"/>
<path d="M497.489 589.27L529.696 447.485" stroke="#66BED8" stroke-width="9.7792"/>
<path d="M3.24037 654.18L526.459 451.589" stroke="#66BED8" stroke-width="9.7792"/>
<path d="M679.909 674.797L802.608 513.025" stroke="#66BED8" stroke-width="9.7792"/>
<path d="M887.089 802.118L801.117 514.469" stroke="#66BED8" stroke-width="9.7792"/>
<path d="M655.187 800.021L684.207 673.009" stroke="#66BED8" stroke-width="9.7792"/>
<line y1="-4.8896" x2="379.309" y2="-4.8896" transform="matrix(0.0345409 -0.999403 -0.972143 0.234389 272.991 381.374)" stroke="#66BED8" stroke-width="9.7792"/>
<path d="M108.957 340.4L288.139 82.1495" stroke="#66BED8" stroke-width="9.7792"/>
<line y1="-4.8896" x2="321.085" y2="-4.8896" transform="matrix(0.84838 -0.529387 -0.397883 -0.917436 13.6886 172.267)" stroke="#66BED8" stroke-width="9.7792"/>
</svg>
