<svg width="1896" height="124" viewBox="0 0 1896 124" fill="none" xmlns="http://www.w3.org/2000/svg">
<path d="M0 42.5L15.616 52.5153L120.959 81.5L150 52.3793L0 42.5Z" fill="#66BED8"/>
<path d="M247.856 45L240.719 65.1419L152.856 79V52.8514L247.856 45Z" fill="#66BED8"/>
<path d="M282.711 49L273.534 75L250.711 69.1612L257.818 52.1797L282.711 49Z" fill="#212A2F"/>
<path d="M301.567 46.5V72.5034L285.567 77.5V52.2521L301.567 46.5Z" fill="#66BED8"/>
<path d="M406.422 52.7951V83.1063L338.297 90L304.422 34L406.422 52.7951Z" fill="#212A2F"/>
<path d="M451.278 47L448.146 65.2314L409.278 77L428.213 54.9389L451.278 47Z" fill="#66BED8"/>
<path d="M527.685 4.10619e-06L597.134 115.468L587.021 124L454.134 59.2029L527.685 4.10619e-06Z" fill="#212A2F"/>
<path d="M664.287 33L671.989 65.4425L634.557 91L599.989 39.175L664.287 33Z" fill="#212A2F"/>
<path d="M690.715 47L695.845 73.2449L679.594 77L674.845 47H690.715Z" fill="#66BED8"/>
<path d="M776.701 59.1436L774.379 75.5L698.701 74.4244L702.467 48.5L776.701 59.1436Z" fill="#66BED8"/>
<path d="M810.556 49.4556V77.5L779.556 64.1802L785.302 46.5L810.556 49.4556Z" fill="#66BED8"/>
<path d="M1023.41 101.496V119.5L860.925 70.7709L813.412 4.5L1023.41 101.496Z" fill="#212A2F"/>
<path d="M1044.27 56.5271L1041.26 75.5L1026.27 67.2802V48.5L1044.27 56.5271Z" fill="#66BED8"/>
<path d="M1098.12 62.7876L1097.69 74.5L1047.12 67.2671L1049.39 49.5L1098.12 62.7876Z" fill="#66BED8"/>
<path d="M1119.98 54.3822V75L1100.98 64.4318L1103.39 49L1119.98 54.3822Z" fill="#212A2F"/>
<path d="M1319.42 86.7171L1315.81 101.567L1126.21 55.7103L1169.12 18.1822L1319.42 86.7171Z" fill="#212A2F"/>
<path d="M1340.75 54.5938L1337.68 73L1323.75 68.0006L1328.84 51L1340.75 54.5938Z" fill="#66BED8"/>
<path d="M1411.61 60.3015L1406.87 71.5L1343.61 68.5809L1347.17 52.5L1411.61 60.3015Z" fill="#66BED8"/>
<path d="M1687.13 25.5L1739.46 98.5L1429.65 77.9726L1414.46 40.5615L1687.13 25.5Z" fill="#212A2F"/>
<path d="M1775.32 53.8192L1771.21 75L1742.32 62.2495L1747.08 49L1775.32 53.8192Z" fill="#66BED8"/>
<path d="M1796.25 30.5L1813.17 78.4734L1795.4 93.5L1778.17 33.3673L1796.25 30.5Z" fill="#66BED8"/>
<path d="M1832.55 14.5176C1826.1 18.6517 1819.27 23.2466 1817 29.8476C1816.04 32.6262 1815.99 35.5675 1816.04 38.4681C1816.29 53.5406 1819.25 68.8706 1827.53 82.181C1836.09 95.9387 1858.26 123.508 1868.73 110.686C1873.87 104.383 1865.04 102.594 1865.96 102.472C1871.85 101.726 1871.42 94.136 1870.46 89.8257C1867.16 75.1327 1864.9 72.1779 1861.24 57.7967C1859.69 51.6701 1853.32 11.5763 1846.18 10.1937C1841.3 9.24493 1836.57 11.9558 1832.57 14.5312L1832.55 14.5176ZM1839.89 46.4381C1839.89 50.3011 1837.11 53.4457 1833.68 53.4457C1830.25 53.4457 1827.48 50.3147 1827.48 46.4381C1827.48 42.5616 1825.72 37.0042 1829.13 37.0042C1832.55 37.0042 1839.89 42.5751 1839.89 46.4381Z" fill="#66BED8"/>
<path d="M1895.88 61.154L1885.54 74L1873.88 60.7208L1879.05 50L1895.88 61.154Z" fill="#66BED8"/>
</svg>
